<svg
	width="24"
	height="20"
	viewBox="0 0 24 20"
	fill="none"
	xmlns="http://www.w3.org/2000/svg"
>
	<path
		d="M2.0585 8.88867H22.6035C22.876 8.88867 23.1372 8.99271 23.3299 9.17791C23.5225 9.3631 23.6308 9.61428 23.6308 9.87619C23.6308 10.1381 23.5225 10.3893 23.3299 10.5745C23.1372 10.7597 22.876 10.8637 22.6035 10.8637H2.0585C1.78606 10.8637 1.52477 10.7597 1.33212 10.5745C1.13948 10.3893 1.03125 10.1381 1.03125 9.87619C1.03125 9.61428 1.13948 9.3631 1.33212 9.17791C1.52477 8.99271 1.78606 8.88867 2.0585 8.88867Z"
		fill="black"
	/>
	<path
		d="M2.48162 9.87639L11.0016 18.0649C11.1945 18.2503 11.3029 18.5018 11.3029 18.764C11.3029 19.0263 11.1945 19.2778 11.0016 19.4632C10.8087 19.6486 10.5471 19.7528 10.2743 19.7528C10.0016 19.7528 9.73994 19.6486 9.54705 19.4632L0.301793 10.5756C0.206129 10.4838 0.13023 10.3748 0.0784435 10.2549C0.0266569 10.1349 0 10.0063 0 9.87639C0 9.7465 0.0266569 9.61788 0.0784435 9.49791C0.13023 9.37794 0.206129 9.26896 0.301793 9.17723L9.54705 0.289601C9.73994 0.104173 10.0016 0 10.2743 0C10.5471 0 10.8087 0.104173 11.0016 0.289601C11.1945 0.47503 11.3029 0.726526 11.3029 0.988762C11.3029 1.251 11.1945 1.50249 11.0016 1.68792L2.48162 9.87639Z"
		fill="black"
	/>
</svg>
