<svg width="17" height="17" viewBox="0 0 17 17" fill="none" xmlns="http://www.w3.org/2000/svg">
<path d="M10.6224 12.1914L9.05856 10.6407C8.30397 9.89228 7.92663 9.51812 7.49369 9.38134C7.11288 9.26106 6.70356 9.26547 6.32545 9.394C5.89551 9.54016 5.52638 9.92237 4.78814 10.6868L1.04133 14.3876M10.6224 12.1914L10.9425 11.8741C11.698 11.1248 12.0757 10.7502 12.5092 10.6134C12.8904 10.4931 13.3 10.4979 13.6784 10.6269C14.1085 10.7735 14.4776 11.1568 15.2157 11.9232L16 12.7126M10.6224 12.1914L14.3828 15.9592M1.04133 14.3876C1.07042 14.6238 1.11996 14.8106 1.20437 14.9763C1.38412 15.329 1.67096 15.6159 2.02377 15.7956C2.42485 16 2.9499 16 4 16H13C13.6134 16 14.0477 16 14.3828 15.9592M1.04133 14.3876C1 14.052 1 13.6164 1 13V4C1 2.94991 1 2.42485 1.20437 2.02377C1.38412 1.67096 1.67096 1.38412 2.02377 1.20437C2.42485 1 2.9499 1 4 1H13C14.0501 1 14.5752 1 14.9763 1.20437C15.329 1.38412 15.6159 1.67096 15.7956 2.02377C16 2.42485 16 2.94991 16 4V12.7126M16 12.7126V13C16 14.0501 16 14.5752 15.7956 14.9763C15.6159 15.329 15.329 15.6159 14.9763 15.7956C14.8095 15.8807 14.6212 15.9302 14.3828 15.9592M13.1875 5.6874C13.1875 6.72297 12.3481 7.56241 11.3125 7.56241C10.2769 7.56241 9.4375 6.72297 9.4375 5.6874C9.4375 4.65186 10.2769 3.8124 11.3125 3.8124C12.3481 3.8124 13.1875 4.65186 13.1875 5.6874Z" stroke="black" stroke-linecap="round" stroke-linejoin="round"/>
</svg>
